<svg id="Layer_1" enable-background="new 0 0 510.77 510.77" height="512" viewBox="0 0 510.77 510.77" width="512" xmlns="http://www.w3.org/2000/svg"><g><g><path d="m491.557 291.629c0 144.698-473.58 144.698-473.58 0 0-105.144 106.014-190.38 236.79-190.38s236.79 85.236 236.79 190.38z" fill="#cf7a15"/><g><path d="m411.012 130.542c-4.445-2.893-10.622-1.723-13.249 2.878-28.149 49.3-72.052 141.361-111.045 134.876-25.726-4.279 17.166-125.329 32.389-164.039 2.177-5.535-1.208-11.701-7.062-12.811-16.906-3.208-34.478-5.029-52.521-5.302-3.019 1.705-5.413 3.056-8.432 4.761-33.474 57.76-93.319 174.036-127.307 161.702-15.722-5.705-.441-85.026 14.089-125.2 2.914-8.056-5.496-15.566-13.185-11.761-71.047 35.162-118.419 98.257-118.419 170.254 0 190.631 499.122 179.221 496.993 0-.745-62.741-35.979-118.731-92.251-155.358z" fill="#f0a346"/></g><g fill="#eb8f21"><path d="m272.045 91.446c5.854 1.111 9.24 7.276 7.063 12.811-15.223 38.71-18.848 101.24-14.671 122.128 4 20 14.412 28.494 14.412 28.494-2.742-33.372 27.89-119.173 40.258-150.623 2.177-5.535-1.208-11.701-7.063-12.811-16.906-3.208-34.478-5.029-52.521-5.302-1.642.927-3.099 1.75-4.573 2.582 5.766.755 11.471 1.654 17.095 2.721z"/><path d="m117.344 236.749c-1.818-26.451 9.567-79.033 20.529-109.341 2.914-8.056-5.495-15.566-13.185-11.761-9.966 4.932-19.465 10.414-28.433 16.393-11.151 67.679 18.849 104.346 21.089 104.709z"/><path d="m411.012 130.542c-4.445-2.893-10.622-1.723-13.249 2.878-2.116 3.706-4.322 7.657-6.607 11.785 44.419 36.109 71.456 85.819 72.108 140.694 1.024 86.184-113.867 133.554-233.426 138.32 132.507 5.315 274.564-42.528 273.426-138.32-.746-62.74-35.98-118.73-92.252-155.357z"/></g></g><path d="m415.104 124.256c-7.305-4.755-17.536-3.233-22.766 3.803-20.119-11.122-41.99-19.668-65.188-25.478.929-8.637-5.052-16.862-13.707-18.504-17.552-3.33-35.654-5.158-53.806-5.432-8.602-.051-15.501 9.272-19.033 15.452-33.771 1.571-67.063 8.895-97.085 21.319-4.521-7.489-14.277-10.39-22.158-6.491-36.607 18.118-67.259 43.6-88.638 73.691-49.412 69.546-45.705 159.416 30.656 206.042 44.144 26.954 110.388 42.789 181.745 43.442 63.137.593 130.192-9.063 186.913-38.194 8.626-4.43 1.772-17.775-6.854-13.343-98.437 50.553-267.158 48.31-353.988-4.708-68.855-42.043-70.762-121.892-26.244-184.551 19.948-28.077 48.671-51.914 83.064-68.936 4.227-2.089 1.906 4.922 1.919 5.007-7.429 21.258-14.375 50.129-17.874 74.492-3.461 24.102-5.546 52.452 9.166 57.791 10.357 3.759 22.348-.307 35.63-12.087 10.016-8.883 21.098-22.217 33.879-40.763 5.503-7.985-6.848-16.496-12.352-8.512-10.845 15.736-37.376 51.572-51.578 47.414-1.614-2.366-4.218-14.328.73-45.886 3.578-22.819 10.175-49.493 16.91-68.502 26.868-11.787 56.747-19.185 87.318-21.643-10.638 18.826-21.276 37.66-32.509 56.14-5.037 8.287 7.781 16.077 12.818 7.791 11.318-18.622 22.226-37.926 31.849-54.957 4.486-7.938 8.743-15.473 12.638-22.222l4.87-2.75c16.613.362 33.16 2.087 49.216 5.134 1.338.434 1.832 1.333 1.481 2.698-2.861 7.276-17.71 45.601-29.033 85.581-4.508 15.916-30.056 89.03 7.585 89.03 37.067-.005 72.576-64.606 101.356-116.973 4.343-7.901 8.444-15.364 12.239-22.012.73-.802 1.612-.906 2.646-.311 55.767 36.299 88.148 90.666 88.844 149.162.333 28.083-12.657 53.002-38.611 74.064-7.629 6.193 2.08 17.629 9.453 11.647 29.691-24.096 44.548-52.994 44.156-85.89-.753-63.592-35.619-122.476-95.657-161.555zm-82.754 104.146c-17.663 23.455-32.564 34.391-44.328 32.507-.699-.832-6.903-10.2 8.305-65.43 7.446-27.04 17.911-57.268 25.98-78.651 22.302 5.478 43.295 13.616 62.565 24.244-16.423 29.651-32.072 60.176-52.522 87.33z"/></g></svg>