<svg id="Layer_3" height="512" viewBox="0 0 64 64" width="512" xmlns="http://www.w3.org/2000/svg" data-name="Layer 3"><path d="m62 22.16a5.174 5.174 0 0 1 -1.15 3.27 18.4 18.4 0 0 1 -4.35 3.77 18.235 18.235 0 0 1 -5.29 2.25l-2.21.55-17-10-25 5-1.98-1.19a6.217 6.217 0 0 1 -.06-10.63 41.732 41.732 0 0 1 21.83-6.18h3.16a52.867 52.867 0 0 1 24.6 6.08l4.65 2.45a5.232 5.232 0 0 1 2.8 4.63z" fill="#9f51b7"/><path d="m36.95 13h-3.16a41.732 41.732 0 0 0 -21.83 6.18 6.181 6.181 0 0 0 -2.17 2.26 6.26 6.26 0 0 0 -.79 3.04 6.188 6.188 0 0 0 .361 2.048l22.639-4.528 6.851 4.03.149-.03 10.141 5.965 2.069-.515a18.235 18.235 0 0 0 5.29-2.25 18.4 18.4 0 0 0 4.35-3.77 5.174 5.174 0 0 0 1.15-3.27 5.23 5.23 0 0 0 -1.4-3.544 52.85 52.85 0 0 0 -23.65-5.616z" fill="#b87bc5"/><path d="m32 22v16l-25 6v-17z" fill="#f2d2c4"/><path d="m49 32v16l-17-10v-16z" fill="#ffe1d3"/><path d="m7 27v17a9.173 9.173 0 0 1 -4.88-6.39l-.12-.61v-16.52a6.223 6.223 0 0 0 3.02 5.33z" fill="#eeb8ab"/><path d="m62 22.16v11.84a12.5 12.5 0 0 1 -7.26 11.35l-5.74 2.65v-16l2.21-.55a18.235 18.235 0 0 0 5.29-2.25 18.4 18.4 0 0 0 4.35-3.77 5.174 5.174 0 0 0 1.15-3.27z" fill="#eeb8ab"/><g fill="#8232a3"><circle cx="20" cy="10" r="3"/><circle cx="24" cy="18" r="2"/><circle cx="13" cy="18" r="2"/><circle cx="52" cy="21" r="3"/></g><circle cx="49" cy="24" fill="#9f51b7" r="2"/><path d="m38 10a5 5 0 0 0 -5-5h-5v5a5 5 0 0 0 5 5h5z" fill="#305b27"/><path d="m33 5h-5l10 10v-5a5 5 0 0 0 -5-5z" fill="#447b3b"/><path d="m46 7h-4a4 4 0 0 0 -4 4v4h4a4 4 0 0 0 4-4z" fill="#508c45"/><path d="m38 11v4l8-8h-4a4 4 0 0 0 -4 4z" fill="#5c9d51"/><circle cx="41" cy="21" fill="#8232a3" r="2"/><circle cx="10" cy="20" fill="#8e34a9" r="3"/><path d="m34 43-22-10v16l22 10z" fill="#ffe1d3"/><path d="m41 31v16a13.785 13.785 0 0 1 -6.946 11.969l-.054.031v-16" fill="#eeb8ab"/><path d="m12 33 29-2a13.785 13.785 0 0 1 -6.946 11.969l-.054.031z" fill="#9f51b7"/><circle cx="34" cy="32" fill="#b87bc5" r="2"/><circle cx="31" cy="34" fill="#8232a3" r="3"/></svg>