<svg height="480pt" viewBox="0 -56 480 480" width="480pt" xmlns="http://www.w3.org/2000/svg"><path d="m40 8h400c17.671875 0 32 14.328125 32 32v256c0 17.671875-14.328125 32-32 32h-400c-17.671875 0-32-14.328125-32-32v-256c0-17.671875 14.328125-32 32-32zm0 0" fill="#3d4d63"/><path d="m414.113281 360h-348.226562c-6.058594 0-11.601563-3.425781-14.3125-8.847656l-11.574219-23.152344h400l-11.574219 23.152344c-2.710937 5.421875-8.253906 8.847656-14.3125 8.847656zm0 0" fill="#2e3e51"/><path d="m368.167969 96h72v32h-72zm0 0" fill="#e0e0de"/><path d="m368 96h24v32h-24zm0 0" fill="#c9c9c7"/><g fill="#ffb531"><path d="m152 112c0 30.929688-25.070312 56-56 56s-56-25.070312-56-56 25.070312-56 56-56 56 25.070312 56 56zm0 0"/><path d="m264 112c0 30.929688-25.070312 56-56 56s-56-25.070312-56-56 25.070312-56 56-56 56 25.070312 56 56zm0 0"/><path d="m376 112c0 30.929688-25.070312 56-56 56s-56-25.070312-56-56 25.070312-56 56-56 56 25.070312 56 56zm0 0"/></g><path d="m118.601562 60.742188c4.148438 20.332031-.1875 41.476562-12.007812 58.53125-11.824219 17.054687-30.097656 28.539062-50.59375 31.789062 15.753906 16.234375 39.730469 21.394531 60.769531 13.082031 21.035157-8.316406 35.007813-28.472656 35.40625-51.089843.402344-22.617188-12.84375-43.257813-33.574219-52.3125zm0 0" fill="#f7a116"/><path d="m230.441406 60.742188c4.136719 20.332031-.207031 41.472656-12.027344 58.523437-11.820312 17.054687-30.089843 28.539063-50.582031 31.796875 15.753907 16.230469 39.726563 21.386719 60.761719 13.074219s35.003906-28.464844 35.410156-51.082031c.402344-22.613282-12.839844-43.25-33.5625-52.3125zm0 0" fill="#f7a116"/><path d="m342.441406 60.742188c4.136719 20.332031-.207031 41.472656-12.027344 58.523437-11.820312 17.054687-30.089843 28.539063-50.582031 31.796875 15.753907 16.230469 39.726563 21.386719 60.761719 13.074219s35.003906-28.464844 35.410156-51.082031c.402344-22.613282-12.839844-43.25-33.5625-52.3125zm0 0" fill="#f7a116"/><path d="m98.585938 104c18.34375 0 18.34375 16 36.6875 16s18.335937-16 36.664062-16 18.351562 16 36.703125 16 18.34375-16 36.679687-16c18.335938 0 18.351563 16 36.703126 16 18.351562 0 18.351562-16 36.710937-16 18.363281 0 18.402344 16 36.714844 16 7.804687-.222656 15.164062-3.703125 20.285156-9.601562-.0625-3.21875-.386719-6.429688-.972656-9.597657-4.175781-20.386719-19.3125-36.78125-39.304688-42.5625-19.992187-5.78125-41.539062 0-55.953125 15.007813-3.972656 4.273437-9.523437 6.734375-15.359375 6.808594h-.257812c-5.976563-.050782-11.675781-2.542969-15.773438-6.894532-10.542969-10.929687-25.074219-17.105468-40.261719-17.105468-15.183593 0-29.71875 6.175781-40.257812 17.105468-4.097656 4.324219-9.773438 6.792969-15.730469 6.839844-6.019531-.09375-11.746093-2.628906-15.863281-7.023438-14.457031-14.890624-35.964844-20.566406-55.882812-14.746093-19.921876 5.820312-34.992188 22.183593-39.15625 42.511719-.515626 2.734374-.835938 5.496093-.960938 8.273437 6.128906 4.6875 10.398438 10.984375 21.9375 10.984375 18.320312 0 18.320312-16 36.648438-16zm0 0" fill="#b0564c"/><path d="m368.167969 208h72v32h-72zm0 0" fill="#e0e0de"/><path d="m368 208h24v32h-24zm0 0" fill="#c9c9c7"/><path d="m152 224c0 30.929688-25.070312 56-56 56s-56-25.070312-56-56 25.070312-56 56-56 56 25.070312 56 56zm0 0" fill="#ffb531"/><path d="m264 224c0 30.929688-25.070312 56-56 56s-56-25.070312-56-56 25.070312-56 56-56 56 25.070312 56 56zm0 0" fill="#ffb531"/><path d="m376 224c0 30.929688-25.070312 56-56 56s-56-25.070312-56-56 25.070312-56 56-56 56 25.070312 56 56zm0 0" fill="#ffb531"/><path d="m118.601562 172.742188c4.148438 20.332031-.1875 41.476562-12.007812 58.53125-11.824219 17.054687-30.097656 28.539062-50.59375 31.789062 15.753906 16.234375 39.730469 21.394531 60.769531 13.082031 21.035157-8.316406 35.007813-28.472656 35.40625-51.089843.402344-22.617188-12.84375-43.257813-33.574219-52.3125zm0 0" fill="#f7a116"/><path d="m230.441406 172.742188c4.136719 20.332031-.207031 41.472656-12.027344 58.523437-11.820312 17.054687-30.089843 28.539063-50.582031 31.796875 15.753907 16.230469 39.726563 21.386719 60.761719 13.074219s35.003906-28.464844 35.410156-51.082031c.402344-22.613282-12.839844-43.25-33.5625-52.3125zm0 0" fill="#f7a116"/><path d="m342.441406 172.742188c4.136719 20.332031-.207031 41.472656-12.027344 58.523437-11.820312 17.054687-30.089843 28.539063-50.582031 31.796875 15.753907 16.230469 39.726563 21.386719 60.761719 13.074219s35.003906-28.464844 35.410156-51.082031c.402344-22.613282-12.839844-43.25-33.5625-52.3125zm0 0" fill="#f7a116"/><path d="m98.585938 216c18.34375 0 18.34375 16 36.6875 16s18.335937-16 36.664062-16 18.351562 16 36.703125 16 18.34375-16 36.679687-16c18.335938 0 18.351563 16 36.703126 16 18.351562 0 18.351562-16 36.710937-16 18.363281 0 18.402344 16 36.714844 16 7.804687-.222656 15.164062-3.703125 20.285156-9.601562-.0625-3.21875-.386719-6.429688-.972656-9.597657-4.175781-20.386719-19.3125-36.78125-39.304688-42.5625-19.992187-5.78125-41.539062 0-55.953125 15.007813-3.972656 4.273437-9.523437 6.734375-15.359375 6.808594h-.257812c-5.976563-.050782-11.675781-2.542969-15.773438-6.894532-10.542969-10.929687-25.074219-17.105468-40.261719-17.105468-15.183593 0-29.71875 6.175781-40.257812 17.105468-4.097656 4.324219-9.773438 6.792969-15.730469 6.839844-6.019531-.09375-11.746093-2.628906-15.863281-7.023438-14.457031-14.890624-35.964844-20.566406-55.882812-14.746093-19.921876 5.820312-34.992188 22.183593-39.15625 42.511719-.515626 2.734374-.835938 5.496093-.960938 8.273437 6.128906 4.6875 10.398438 10.984375 21.9375 10.984375 18.320312 0 18.320312-16 36.648438-16zm0 0" fill="#b0564c"/><path d="m440 0h-400c-22.082031.0273438-39.9726562 17.917969-40 40v256c.0625 20.019531 14.9375 36.898438 34.792969 39.472656l9.597656 19.261719c4.046875 8.164063 12.386719 13.308594 21.496094 13.265625h348.226562c9.097657.03125 17.421875-5.113281 21.460938-13.265625l9.601562-19.261719c19.867188-2.5625 34.761719-19.441406 34.824219-39.472656v-256c-.027344-22.082031-17.917969-39.9726562-40-40zm-18.734375 347.574219c-1.355469 2.710937-4.125 4.425781-7.152344 4.425781h-348.226562c-3.027344 0-5.796875-1.714844-7.152344-4.425781l-5.789063-11.574219h374.109376zm42.734375-51.574219c0 13.253906-10.746094 24-24 24h-400c-13.253906 0-24-10.746094-24-24v-256c0-13.253906 10.746094-24 24-24h400c13.253906 0 24 10.746094 24 24zm0 0"/><path d="m440.160156 88h-60.664062c-.757813-1.894531-1.601563-3.761719-2.527344-5.601562l-.25.128906c-9.488281-18.328125-27.234375-30.953125-47.660156-33.910156-20.425782-2.957032-41.023438 4.117187-55.324219 19-2.601563 2.703124-6.203125 4.222656-9.957031 4.203124-3.757813-.023437-7.339844-1.582031-9.914063-4.316406-12.046875-12.480468-28.652343-19.53125-46-19.53125-17.347656 0-33.949219 7.050782-46 19.53125-2.621093 2.765625-6.269531 4.320313-10.078125 4.292969s-7.4375-1.636719-10.015625-4.4375c-15.0625-15.425781-36.84375-22.289063-58.027343-18.28125-25.519532 4.820313-45.554688 24.652344-50.636719 50.121094-.597657 3.101562-.964844 6.246093-1.105469 9.402343-.027344.726563.042969 1.457032.214844 2.167969 0 .414063-.0625.796875-.0625 1.230469.042968 23.222656 12.664062 44.597656 32.976562 55.855469-16.574218 9.011719-28.296875 24.917969-32 43.417969-.605468 3.101562-.980468 6.242187-1.128906 9.398437-.027344.730469.042969 1.464844.214844 2.175781 0 .410156-.0625.800782-.0625 1.214844-.035156 29.183594 19.703125 54.683594 47.957031 61.96875 28.257813 7.289062 57.863281-5.488281 71.945313-31.046875 11.265624 20.421875 32.75 33.101563 56.074218 33.089844 23.324219-.011719 44.792969-12.710938 56.039063-33.144531 11.316406 20.339843 32.722656 33.007812 56 33.132812 26.0625.09375 49.527343-15.773438 59.144531-40h60.847656c4.417969 0 8-3.582031 8-8v-32c0-4.417969-3.582031-8-8-8h-60.664062c-.769532-1.890625-1.609375-3.757812-2.527344-5.597656l-.25.128906c-5.789062-11.179688-14.742188-20.402344-25.742188-26.523438 12.878907-7.074218 22.894532-18.414062 28.328126-32.070312h60.855468c4.417969 0 8-3.582031 8-8v-32c0-4.417969-3.582031-8-8-8zm-353.542968-23.144531c15.925781-3.160157 32.367187 2 43.628906 13.695312 5.652344 5.824219 13.414062 9.117188 21.53125 9.140625 8.113281.019532 15.894531-3.234375 21.574218-9.027344 9.03125-9.371093 21.488282-14.664062 34.5-14.664062 13.015626 0 25.46875 5.292969 34.5 14.664062 5.671876 5.972657 13.554688 9.351563 21.792969 9.335938 8.019531-.054688 15.660157-3.402344 21.136719-9.265625 12.34375-12.835937 30.785156-17.78125 47.898438-12.847656 17.113281 4.9375 30.085937 18.945312 33.699218 36.386719.292969 1.527343.503906 3.070312.632813 4.621093-3.140625 3.3125-7.519531 5.160157-12.078125 5.105469-5.035156-.035156-9.808594-2.230469-13.105469-6.03125-6.203125-6.367188-14.714844-9.957031-23.601563-9.957031-8.886718 0-17.394531 3.589843-23.597656 9.957031-3.277344 3.824219-8.0625 6.027344-13.097656 6.027344s-9.820312-2.203125-13.09375-6.027344c-6.199219-6.375-14.710938-9.96875-23.601562-9.96875-8.890626 0-17.402344 3.59375-23.601563 9.96875-3.269531 3.828125-8.054687 6.03125-13.089844 6.03125-5.035156 0-9.820312-2.203125-13.09375-6.03125-6.195312-6.375-14.707031-9.972656-23.597656-9.972656s-17.402344 3.597656-23.601563 9.972656c-3.269531 3.820312-8.050781 6.019531-13.078124 6.019531-5.03125 0-9.8125-2.199219-13.082032-6.019531-6.195312-6.378906-14.707031-9.980469-23.597656-9.980469-8.894531 0-17.40625 3.601563-23.601562 9.980469-3.269532 3.824219-8.050782 6.027344-13.082032 6.027344s-9.808594-2.203125-13.078125-6.027344l-.152343-.136719c.28125-2.339843.71875-4.660156 1.304687-6.945312l-.230469-.054688c4.835938-17.40625 19.117188-30.570312 36.863282-33.976562zm73.871093 51.800781c3.023438-3.046875 7.15625-4.726562 11.449219-4.65625 5.027344.035156 9.796875 2.234375 13.09375 6.03125 6.199219 6.375 14.710938 9.96875 23.601562 9.96875 8.890626 0 17.402344-3.59375 23.597657-9.96875 3.296875-3.792969 8.0625-5.988281 13.089843-6.03125 3.921876-.105469 7.730469 1.3125 10.632813 3.953125-2.140625 24.945313-23.035156 44.089844-48.074219 44.046875-24.636718.003906-45.199218-18.804688-47.390625-43.34375zm16.550781 51.296875c-5.617187 3.109375-10.742187 7.039063-15.199218 11.664063-2.621094 2.765624-6.269532 4.320312-10.078125 4.292968-3.808594-.023437-7.4375-1.628906-10.019531-4.429687-4.429688-4.511719-9.507813-8.339844-15.070313-11.351563 10.664063-5.855468 19.464844-14.589844 25.398437-25.207031 5.777344 10.542969 14.4375 19.226563 24.96875 25.03125zm87.136719-25.089844c5.894531 10.546875 14.621094 19.238281 25.191407 25.089844-5.785157 3.09375-11.058594 7.0625-15.632813 11.765625-2.601563 2.707031-6.203125 4.222656-9.957031 4.203125s-7.335938-1.574219-9.914063-4.304687c-4.398437-4.566407-9.445312-8.457032-14.984375-11.546876 10.632813-5.859374 19.398438-14.59375 25.296875-25.207031zm-213.945312-16.941406c3.738281 1.425781 7.707031 2.128906 11.707031 2.078125 8.890625.03125 17.40625-3.570312 23.574219-9.976562 3.269531-3.820313 8.050781-6.023438 13.082031-6.023438 5.027344 0 9.808594 2.203125 13.078125 6.023438 6.179687 6.402343 14.703125 10.007812 23.601563 9.976562 2.105468-.007812 4.207031-.207031 6.277343-.601562-6.671875 19.757812-25.347656 32.9375-46.199219 32.597656-20.851562-.335938-39.089843-14.113282-45.121093-34.074219zm45.648437 146.140625c-21.027344-.160156-39.515625-13.964844-45.648437-34.078125 3.738281 1.425781 7.707031 2.132813 11.707031 2.078125 8.886719.035156 17.40625-3.566406 23.574219-9.964844 3.269531-3.828125 8.046875-6.03125 13.082031-6.03125 5.03125 0 9.808594 2.203125 13.078125 6.03125 6.183594 6.394532 14.703125 9.992188 23.601563 9.964844 2.105468-.003906 4.207031-.207031 6.277343-.597656-6.726562 19.484375-25.058593 32.570312-45.671875 32.597656zm112 0c-24.636718.003906-45.199218-18.804688-47.390625-43.34375 3.023438-3.039062 7.15625-4.722656 11.449219-4.65625 5.027344.039062 9.796875 2.234375 13.09375 6.035156 6.199219 6.371094 14.710938 9.964844 23.601562 9.964844 8.886719 0 17.398438-3.59375 23.597657-9.964844 3.292969-3.796875 8.058593-5.992187 13.082031-6.035156 3.921875-.101562 7.730469 1.3125 10.632812 3.953125-2.140624 24.941406-23.03125 44.085937-48.066406 44.046875zm112.082032 0c-20.539063-.179688-38.710938-13.339844-45.289063-32.796875 2.414063.53125 4.878906.800781 7.351563.796875 8.886718.019531 17.398437-3.578125 23.578124-9.964844 3.273438-3.832031 8.058594-6.035156 13.097657-6.035156 5.039062 0 9.824219 2.203125 13.101562 6.035156 6.191407 6.394532 14.71875 9.996094 23.625 9.964844 3.5625.03125 7.105469-.53125 10.484375-1.664062-6.203125 20.121093-24.855468 33.800781-45.910156 33.664062zm112.199218-40h-48.574218c.765624-5.304688.765624-10.691406 0-16h48.574218zm-65.257812-17.726562c.292968 1.527343.503906 3.074218.632812 4.625-3.136718 3.3125-7.515625 5.164062-12.078125 5.101562-5.03125-.03125-9.808593-2.230469-13.105469-6.03125-6.203124-6.363281-14.710937-9.953125-23.597656-9.953125-8.890625 0-17.398437 3.589844-23.601562 9.953125-3.277344 3.828125-8.058594 6.027344-13.097656 6.027344-5.035157 0-9.820313-2.199219-13.09375-6.027344-6.199219-6.371094-14.710938-9.96875-23.601563-9.96875s-17.402344 3.597656-23.597656 9.96875c-3.273438 3.828125-8.058594 6.03125-13.09375 6.03125-5.035157 0-9.820313-2.203125-13.09375-6.03125-6.195313-6.375-14.707031-9.972656-23.597657-9.972656-8.890624 0-17.402343 3.597656-23.601562 9.972656-3.269531 3.824219-8.046875 6.023438-13.078125 6.023438s-9.808594-2.199219-13.082031-6.023438c-6.195313-6.378906-14.707032-9.976562-23.597656-9.976562-8.894532 0-17.40625 3.597656-23.601563 9.976562-3.269531 3.824219-8.050781 6.023438-13.078125 6.023438-5.03125 0-9.8125-2.199219-13.082031-6.023438l-.152344-.136719c.28125-2.339843.71875-4.660156 1.304687-6.941406l-.230468-.066406c4.660156-16.484375 17.773437-29.222657 34.386718-33.410157 16.613282-4.183593 34.195313.828126 46.109376 13.140626 5.652343 5.820312 13.414062 9.113281 21.527343 9.132812 8.117188.019531 15.894531-3.234375 21.574219-9.03125 9.03125-9.367188 21.488281-14.660156 34.5-14.660156 13.015625 0 25.46875 5.292968 34.5 14.660156 5.671875 5.980469 13.554688 9.355469 21.792969 9.335938 8.015625-.054688 15.660156-3.398438 21.136719-9.253907 12.34375-12.839843 30.78125-17.785156 47.898437-12.851562 17.113281 4.933593 30.085937 18.9375 33.699219 36.378906zm-46.902344-54.335938c-20.535156-.1875-38.707031-13.347656-45.289062-32.800781 2.414062.539062 4.878906.804687 7.351562.800781 8.875.007812 17.371094-3.589844 23.539062-9.96875 3.273438-3.828125 8.058594-6.03125 13.097657-6.03125 5.039062 0 9.824219 2.203125 13.101562 6.03125 6.199219 6.40625 14.742188 10.007812 23.65625 9.96875 3.5625.03125 7.109375-.535156 10.488281-1.671875-6.207031 20.132813-24.878906 33.816406-45.945312 33.671875zm112.160156-40h-48.574218c.765624-5.304688.765624-10.695312 0-16h48.574218zm0 0"/></svg>