<?xml version="1.0" encoding="iso-8859-1"?>
<!-- Generator: Adobe Illustrator 19.0.0, SVG Export Plug-In . SVG Version: 6.00 Build 0)  -->
<svg version="1.1" id="Layer_1" xmlns="http://www.w3.org/2000/svg" xmlns:xlink="http://www.w3.org/1999/xlink" x="0px" y="0px"
	 viewBox="0 0 512 512" style="enable-background:new 0 0 512 512;" xml:space="preserve">
<path style="fill:#00838F;" d="M503.46,256.001c-0.06,31.934-6.228,63.552-18.172,93.165
	c-25.245,62.033-74.473,111.261-136.506,136.506c-29.511,11.748-60.984,17.771-92.739,17.746c-5.716,0-11.347,0-17.063-0.597l0,0
	c-5.716,0-11.347-0.938-17.063-1.792c-20.305-2.687-40.184-7.994-59.124-15.784C100.759,460,51.531,410.773,26.286,348.739
	c-11.714-29.511-17.712-60.984-17.66-92.739c0.06-31.934,6.228-63.552,18.172-93.165c25.347-61.88,74.549-110.928,136.506-136.079
	c18.778-7.747,38.478-13.053,58.612-15.784c5.546-0.853,11.176-1.365,17.063-1.792l0,0c5.716-0.597,11.347-0.597,17.063-0.597
	c31.934,0.06,63.552,6.228,93.165,18.172c61.957,25.151,111.159,74.2,136.506,136.079c7.602,18.949,12.763,38.785,15.357,59.039
	C502.692,233.178,503.494,244.585,503.46,256.001z"/>
<path style="fill:#00BCD4;" d="M469.333,256.001c-0.06,31.934-6.228,63.552-18.172,93.165
	c-25.245,62.033-74.473,111.261-136.506,136.506c-18.804,7.602-38.495,12.763-58.612,15.357c-5.546,0.853-11.176,1.365-17.063,1.792
	l0,0c-5.716,0-11.347-0.938-17.063-1.792c-20.305-2.687-40.184-7.994-59.124-15.784C100.759,460,51.531,410.773,26.286,348.739
	c-11.714-29.511-17.712-60.984-17.66-92.739c0.06-31.934,6.228-63.552,18.172-93.165c25.347-61.88,74.549-110.928,136.506-136.079
	c18.778-7.747,38.478-13.053,58.612-15.784c5.546-0.853,11.176-1.365,17.063-1.792l0,0c5.716,0,11.347,0.938,17.063,1.792
	c20.305,2.687,40.184,7.994,59.124,15.784c21.099,8.566,40.884,20.049,58.783,34.127c50.84,39.459,84.216,97.243,92.995,160.992
	C468.565,233.178,469.367,244.585,469.333,256.001z"/>
<path d="M256.043,511.949c-33.043-0.077-65.77-6.475-96.407-18.855C95.733,466.996,45.004,416.301,18.863,352.408
	C10.81,332.777,5.332,312.19,2.568,291.151c-3.302-23.377-3.302-47.095,0-70.471c2.807-20.979,8.31-41.515,16.381-61.086
	c26.09-63.91,76.793-114.639,140.687-140.772c19.631-8.054,40.218-13.531,61.257-16.295c23.377-3.285,47.095-3.285,70.471,0
	c20.979,2.807,41.515,8.31,61.086,16.381C416.352,45.005,467.081,95.7,493.222,159.593c8.003,19.614,13.48,40.175,16.295,61.172
	c3.302,23.377,3.302,47.095,0,70.471c-2.773,21.005-8.25,41.566-16.295,61.172c-26.115,63.927-76.844,114.657-140.772,140.772
	c-19.606,8.045-40.167,13.523-61.172,16.295C279.607,511.156,267.833,511.975,256.043,511.949z M256.043,17.115
	c-30.816,0.043-61.334,5.981-89.923,17.49C106.458,58.98,59.107,106.33,34.732,165.992c-11.552,28.607-17.515,59.158-17.575,90.009
	c0.043,30.816,5.981,61.334,17.49,89.923c24.375,59.662,71.725,107.012,131.387,131.387c18.258,7.525,37.42,12.661,56.991,15.272
	c21.79,3.063,43.904,3.063,65.694,0c19.606-2.611,38.785-7.747,57.077-15.272c59.662-24.375,107.012-71.725,131.387-131.387
	c11.595-28.572,17.618-59.09,17.746-89.923c0.026-10.989-0.742-21.969-2.304-32.847c-8.549-61.59-40.781-117.412-89.838-155.617
	c-17.285-13.548-36.379-24.605-56.735-32.847C317.445,23.138,286.893,17.175,256.043,17.115z"/>
<path style="fill:#D84315;" d="M435.207,256.001c0,98.95-80.214,179.164-179.164,179.164c-5.699,0.017-11.398-0.264-17.063-0.853
	c-98.481-9.641-170.496-97.295-160.847-195.775c8.335-85.137,75.71-152.511,160.847-160.847c5.665-0.589,11.364-0.87,17.063-0.853
	C354.992,76.836,435.207,157.051,435.207,256.001z"/>
<path style="fill:#FF5722;" d="M401.08,256.001c-0.017,92.329-70.198,169.515-162.101,178.311
	c-98.481-9.641-170.496-97.295-160.847-195.775c8.335-85.137,75.71-152.511,160.847-160.847
	C330.882,86.486,401.063,163.671,401.08,256.001z"/>
<path d="M256.043,443.696c-103.659,0-187.696-84.037-187.696-187.696S152.383,68.305,256.043,68.305s187.696,84.037,187.696,187.696
	S359.702,443.696,256.043,443.696z M256.043,85.368c-94.24,0-170.633,76.392-170.633,170.633s76.392,170.633,170.633,170.633
	s170.633-76.392,170.633-170.633S350.283,85.368,256.043,85.368z"/>
<path d="M111.005,264.532c-4.709,0-8.532-3.822-8.532-8.532c0-84.813,68.756-153.569,153.569-153.569
	c4.709,0,8.532,3.822,8.532,8.532c0,4.709-3.822,8.532-8.532,8.532c-75.394,0-136.506,61.112-136.506,136.506
	C119.537,260.71,115.714,264.532,111.005,264.532z"/>
<g>
	<path style="fill:#FF5722;" d="M290.169,10.972c0,18.846-15.28,34.127-34.126,34.127s-34.127-15.28-34.127-34.127
		C244.559,7.773,267.535,7.773,290.169,10.972z"/>
	<path style="fill:#FF5722;" d="M290.169,501.029c-22.634,3.199-45.619,3.199-68.253,0c0-18.846,15.28-34.127,34.127-34.127
		S290.169,482.182,290.169,501.029z"/>
	<path style="fill:#FF5722;" d="M149.397,71.291c-15.519,8.924-35.287,4.343-45.303-10.494
		c17.899-14.077,37.684-25.561,58.783-34.127C170.82,42.778,164.933,62.281,149.397,71.291z"/>
	<path style="fill:#FF5722;" d="M407.991,451.204c-17.899,14.077-37.684,25.561-58.783,34.126
		c-7.943-17.089-0.529-37.386,16.568-45.329C380.707,433.057,398.461,437.775,407.991,451.204z"/>
	<path style="fill:#FF5722;" d="M71.333,149.355c-9.009,15.485-28.453,21.372-44.535,13.48
		c8.566-21.099,20.049-40.884,34.127-58.783C75.735,114.094,80.274,133.862,71.333,149.355z"/>
	<path style="fill:#FF5722;" d="M485.287,349.166c-8.566,21.099-20.049,40.884-34.127,58.783c-15.374-10.903-19-32.207-8.088-47.581
		C452.594,346.939,470.357,342.23,485.287,349.166z"/>
	<path style="fill:#FF5722;" d="M42.752,256.001c0.043,17.951-13.83,32.872-31.738,34.127c-3.199-22.634-3.199-45.619,0-68.253
		C28.922,223.128,42.795,238.05,42.752,256.001z"/>
	<path style="fill:#FF5722;" d="M503.46,256.001c0.034,11.415-0.768,22.822-2.389,34.127c-18.846,0-34.126-15.28-34.126-34.127
		s15.28-34.126,34.126-34.126C502.692,233.178,503.494,244.585,503.46,256.001z"/>
	<path style="fill:#FF5722;" d="M60.839,407.949c-14.077-17.899-25.561-37.684-34.127-58.783
		c17.089-7.943,37.386-0.529,45.329,16.568C78.986,380.665,74.268,398.419,60.839,407.949z"/>
	<path style="fill:#FF5722;" d="M485.287,162.835c-17.089,7.943-37.386,0.529-45.329-16.568
		c-6.936-14.93-2.227-32.693,11.202-42.214C465.238,121.952,476.722,141.736,485.287,162.835z"/>
	<path style="fill:#FF5722;" d="M162.877,485.245c-21.099-8.566-40.884-20.049-58.783-34.127c10.903-15.374,32.207-19,47.581-8.088
		C165.104,452.552,169.813,470.315,162.877,485.245z"/>
	<path style="fill:#FF5722;" d="M407.991,60.797c-10.903,15.374-32.207,19-47.581,8.088c-13.429-9.53-18.147-27.284-11.202-42.214
		C370.307,35.236,390.092,46.72,407.991,60.797z"/>
</g>
<path d="M256.043,51.242c-22.438,0.051-41.088-17.285-42.658-39.672c-0.316-4.471,2.892-8.429,7.337-9.044
	c23.402-3.302,47.154-3.302,70.557,0c4.479,0.58,7.73,4.539,7.423,9.044C297.131,33.956,278.481,51.293,256.043,51.242z
	 M232.325,18.309c5.315,13.096,20.237,19.409,33.342,14.094c6.407-2.602,11.501-7.687,14.094-14.094
	C263.986,16.74,248.1,16.74,232.325,18.309z"/>
<path d="M256.043,511.949c-11.816,0.034-23.624-0.793-35.321-2.474c-4.445-0.614-7.653-4.573-7.337-9.044
	c0-23.556,19.102-42.658,42.658-42.658s42.658,19.102,42.658,42.658c0.316,4.445-2.841,8.387-7.252,9.044
	C279.726,511.156,267.893,511.983,256.043,511.949z M232.325,493.692c15.775,1.57,31.661,1.57,47.436,0
	c-5.315-13.096-20.237-19.409-33.342-14.094C240.012,482.191,234.927,487.284,232.325,493.692z"/>
<path d="M132.419,84.344c-14.205,0-27.48-7.064-35.406-18.855c-2.457-3.72-1.638-8.694,1.877-11.432
	c18.505-14.529,38.947-26.388,60.745-35.236c4.198-1.834,9.095-0.026,11.091,4.095c9.854,20.169,2.397,44.527-17.063,55.712l0,0
	C147.205,82.356,139.876,84.327,132.419,84.344z M116.721,61.991c11.211,8.608,27.284,6.493,35.884-4.718
	c4.155-5.409,5.972-12.243,5.068-19C143.255,44.783,129.536,52.726,116.721,61.991z"/>
<path d="M349.208,493.777c-3.242,0.026-6.22-1.792-7.678-4.692c-10.076-21.295-0.99-46.728,20.305-56.812
	c18.821-8.907,41.327-2.926,53.237,14.154c2.457,3.72,1.638,8.694-1.877,11.432c-18.497,14.555-38.947,26.448-60.745,35.321
	C351.418,493.589,350.317,493.794,349.208,493.777z M379.751,444.72c-14.137-0.128-25.697,11.228-25.825,25.365
	c-0.009,1.22,0.068,2.432,0.23,3.643c14.418-6.51,28.137-14.453,40.952-23.718C390.697,446.623,385.305,444.771,379.751,444.72z"/>
<path d="M41.814,174.865c-6.527,0.085-12.977-1.348-18.855-4.18c-4.121-1.996-5.929-6.894-4.095-11.091
	c8.839-21.824,20.706-42.3,35.236-60.831c2.739-3.515,7.713-4.334,11.432-1.877c18.642,12.49,24.426,37.292,13.224,56.735l0,0
	C71.111,166.785,57.034,174.882,41.814,174.865z M38.401,157.802c14.009,1.885,26.892-7.943,28.786-21.952
	c0.913-6.757-0.913-13.591-5.068-19c-9.282,12.729-17.251,26.371-23.803,40.696L38.401,157.802z"/>
<path d="M451.246,416.48c-1.672-0.017-3.302-0.52-4.692-1.45c-19.324-13.48-24.059-40.073-10.579-59.389
	c11.91-17.08,34.417-23.061,53.237-14.154c3.984,1.988,5.767,6.706,4.095,10.835c-8.839,21.824-20.706,42.3-35.236,60.831
	C456.442,415.269,453.917,416.498,451.246,416.48z M470.272,354.2c-14.137,0.034-25.569,11.518-25.535,25.655
	c0.017,5.631,1.877,11.091,5.315,15.553c9.265-12.815,17.208-26.542,23.718-40.952C472.609,354.285,471.441,354.2,470.272,354.2z"/>
<path d="M11.014,298.659c-4.283,0.043-7.934-3.097-8.532-7.337c-3.31-23.402-3.31-47.154,0-70.557
	c0.58-4.513,4.59-7.781,9.129-7.423c23.556,0,42.658,19.102,42.658,42.658s-19.102,42.658-42.658,42.658L11.014,298.659
	L11.014,298.659z M18.352,232.368c-1.561,15.741-1.561,31.61,0,47.351c13.079-5.375,19.324-20.322,13.949-33.401
	C29.699,239.987,24.682,234.97,18.352,232.368z"/>
<path d="M501.071,298.659h-0.597c-23.556,0-42.658-19.102-42.658-42.658s19.102-42.658,42.658-42.658
	c4.445-0.316,8.387,2.841,9.044,7.252c3.31,23.402,3.31,47.154,0,70.557C508.997,295.425,505.379,298.65,501.071,298.659z
	 M493.734,232.368c-13.079,5.375-19.324,20.322-13.949,33.401c2.602,6.33,7.619,11.347,13.949,13.949
	C495.295,263.978,495.295,248.109,493.734,232.368z"/>
<path d="M60.839,416.48c-2.628,0.017-5.11-1.186-6.74-3.242c-14.529-18.531-26.397-39.007-35.236-60.831
	c-1.834-4.198-0.026-9.095,4.095-11.091c21.295-10.076,46.728-0.99,56.812,20.305c8.907,18.821,2.926,41.327-14.154,53.237
	C64.226,415.866,62.562,416.438,60.839,416.48z M38.316,354.456c6.51,14.41,14.453,28.137,23.718,40.952
	c8.608-11.211,6.493-27.284-4.718-35.884C51.906,355.368,45.073,353.543,38.316,354.456z"/>
<path d="M470.272,174.865c-23.556-0.068-42.607-19.213-42.539-42.778c0.043-14.111,7.056-27.293,18.735-35.201
	c3.72-2.457,8.694-1.638,11.432,1.877c14.564,18.522,26.448,38.998,35.321,60.831c1.834,4.198,0.026,9.095-4.095,11.091
	C483.248,173.517,476.798,174.95,470.272,174.865z M450.052,116.594c-8.608,11.211-6.493,27.284,4.718,35.884
	c5.409,4.155,12.243,5.972,19,5.068c-6.51-14.384-14.461-28.078-23.718-40.866L450.052,116.594L450.052,116.594z"/>
<path d="M162.877,493.777c-1.109,0.017-2.21-0.188-3.242-0.597c-21.824-8.839-42.3-20.706-60.83-35.236
	c-3.515-2.739-4.334-7.713-1.877-11.432c13.48-19.324,40.073-24.059,59.389-10.579c17.08,11.91,23.061,34.417,14.154,53.237
	C169.003,492.002,166.068,493.786,162.877,493.777z M116.721,450.01c12.823,9.265,26.542,17.208,40.952,23.718
	c1.885-14.009-7.943-26.892-21.952-28.786C128.964,444.038,122.13,445.855,116.721,450.01z"/>
<path d="M379.666,84.344c-23.556,0-42.658-19.102-42.658-42.658c0-6.51,1.484-12.925,4.351-18.77
	c1.996-4.121,6.894-5.929,11.091-4.095c21.824,8.839,42.3,20.706,60.831,35.236c3.515,2.739,4.334,7.713,1.877,11.432
	C407.215,77.306,393.905,84.378,379.666,84.344z M354.071,38.273c-1.885,14.009,7.943,26.892,21.952,28.786
	c6.757,0.913,13.591-0.913,19-5.068c-12.712-9.24-26.312-17.191-40.611-23.718H354.071z"/>
<path d="M256.043,409.57c-4.709,0-8.532-3.822-8.532-8.532s3.822-8.532,8.532-8.532c75.394,0,136.506-61.112,136.506-136.506
	c0-4.709,3.822-8.532,8.532-8.532s8.532,3.822,8.532,8.532C409.612,340.813,340.856,409.57,256.043,409.57z"/>
<g>
</g>
<g>
</g>
<g>
</g>
<g>
</g>
<g>
</g>
<g>
</g>
<g>
</g>
<g>
</g>
<g>
</g>
<g>
</g>
<g>
</g>
<g>
</g>
<g>
</g>
<g>
</g>
<g>
</g>
</svg>
